<svg xmlns="http://www.w3.org/2000/svg" viewBox="0 0 6000 4000" id="smart-farming-using-automatic-cultivator-system"><polygon fill="#2f2b2b" points="1196.29 1256.58 1216.56 1194.43 1392.35 1295.93 1367.94 1361.65 1392.35 1388.23 1425.52 1291.33 1202.93 1156.73 1187.43 1235.41 1196.29 1256.58"></polygon><path fill="#a0d5fd" d="M4692.83,2327.46H1176.66s-.92-1.12-2.64-3.28c-30.09-37.79-304.22-395.18-130.26-664.53,68.9-106.7,208.09-199.57,460.59-253.31-51.93-416,400.48-752.75,804.22-554.52,62.69,30.76,124.19,74.44,182.47,132.71,264.83-264.84,691.51-326.15,951.32-143.79a499.5,499.5,0,0,1,65.65,55,490.77,490.77,0,0,1,51.52,60.37,243.16,243.16,0,0,0,59.68,58.22q9.12,6.24,18.74,11.62a237.5,237.5,0,0,0,146.9,28.38c42.21-5.54,87.53-5.48,134.76-.31,112.46,12.3,235.85,53.6,354.14,117.48C4668.82,1384.8,4647.55,1865.39,4692.83,2327.46Z"></path><path fill="#6abefd" d="M2708.34,2327.46H1189.15l-15.13-3.28c-30.09-37.79-304.22-395.18-130.26-664.53,181.34-18.58,665.38-33.48,869.31,300.79C2364.17,1800.75,2670.79,2086.55,2708.34,2327.46Z"></path><path fill="#e1f1fd" d="M3638,1025.94c-199.82,129.38-364.74,375.37-410.67,616.13C3068,1407.54,2570.36,1389.18,1861,1910c162-841.49,740.08-604.93,740.08-604.93s184.16-229,583-72.73c51.31-191.24,148.78-313.64,258.35-391.6a499.5,499.5,0,0,1,65.65,55,490.77,490.77,0,0,1,51.52,60.37,243.16,243.16,0,0,0,59.68,58.22Q3628.33,1020.56,3638,1025.94Z"></path><path fill="#a0d5fd" d="M4692.83,2327.46H2183.27c54.48-106.39,211-364,449.56-364,122.7-277.32,510.51-337.25,706.26-209.86,79.69-309.11,526.07-569.91,934.66-582.1,264.12,142.6,371.84,397.73,407.19,693.9C4698.46,2012.23,4797,2169.16,4692.83,2327.46Z"></path><path fill="#49b4fd" d="M4692.83,2327.46H2525.72c51.69-92.59,155.06-222.34,299.88-139,0,0,380.79-187.49,589.47-119.9C3593.23,2171.45,3624,2247.73,3624,2247.73s242.12-215.59,567.11-117.56c109.13-63,411.95-257.1,620.9-264.78C4829.52,2012.23,4797,2169.16,4692.83,2327.46Z"></path><path fill="#ff7731" d="M2896.83,1443c-32.15,11.54-90.84,20.25-95.69,6.74s46-44.12,78.13-55.66,36.22-.64,41.07,12.87S2929,1431.43,2896.83,1443Z"></path><path fill="#69a21a" d="M2918,1400.44s15.31-24,20.6-19-2.73,16.08-2.73,16.08,19.95-8.47,17,2.43-12.32,10.75-12.32,10.75,12.13-2.4,9.82,9.25-26.11-2-26.11-2Z"></path><path fill="#523418" d="M4692.83,2327.45H1176.66c-37.81,89.44-50.74,171.15-43.73,244.85h3435.9C4658.09,2437.2,4692.83,2327.45,4692.83,2327.45Z"></path><polygon fill="#9ca0a2" points="2916.47 2058.23 2887.95 2150.74 4453.74 2150.74 4453.74 2039.9 2916.47 2058.23"></polygon><rect width="44.01" height="489" x="4144.68" y="1403.79" fill="#231f20"></rect><rect width="44.01" height="57.05" x="4144.68" y="1330.85" fill="#fff" stroke="#000" stroke-linecap="round" stroke-linejoin="round" stroke-width="10"></rect><path fill="#231f20" d="M4136.94,1203.2h-44c7.25,42.64,44.49,76.87,51.74,119.5h44C4181.43,1280.07,4144.19,1245.84,4136.94,1203.2Z"></path><path fill="#fdcd00" d="M4884.76,1817V2082.6H4290.42a62.62,62.62,0,0,1-62.61-62.62V1528.42c0-32.14,25.32-58.2,56.56-58.2h307.8c58.41,0,112.45,31.79,142.08,83.59Z"></path><path fill="#76797a" d="M4740.09,2082.6H4266.18a38.38,38.38,0,0,1-38.37-38.38V1843.14h343.43S4735.12,1848.4,4740.09,2082.6Z"></path><path fill="#1a1a1a" d="M4650.86,1942.92l-5.42,9.24,20.53,22.26,9.65-4.64,17.56,25.93-7.89,7.23,13.05,27.33,10.59-1.6,9.14,30-9.68,4.58,4.43,30,10.58,1.6-.09,31.32-10.6,1.53-4.61,29.93,9.65,4.64-9.33,29.9-10.57-1.66-13.23,27.24,7.85,7.28-17.72,25.83-9.62-4.71-20.66,22.14,5.35,9.27-24.55,19.45-7.8-7.33-26.27,15.06,2.38,10.44-29.19,11.35-5.29-9.3-29.55,6.64-.8,10.68-31.24,2.24-2.31-10.45-30.2-2.36-3.91,10-30.51-7.06.87-10.67L4403.29,2305l-6.67,8.37-27.08-15.75,4-9.94-23.62-19-8.85,6-21.23-23,6.73-8.33-17-25.07-10.23,3.16-13.51-28.26,8.89-6-8.84-29h-10.71l-4.57-31,10.25-3.09.1-30.28-10.24-3.16,4.77-31,10.7.06,9-28.91-8.85-6,13.68-28.17,10.21,3.22,17.14-25-6.68-8.37,21.38-22.9,8.8,6.09,23.74-18.81-3.91-10,27.17-15.58,6.62,8.41,28.23-11-.81-10.68,30.56-6.87,3.85,10,30.21-2.17,2.38-10.44,31.22,2.44.73,10.68,29.51,6.83,5.35-9.28,29.12,11.54-2.45,10.42,26.18,15.22,7.85-7.28Z"></path><polygon fill="#e88d00" points="2952.12 1514.46 2577.67 1531.66 2589.49 1556.08 2965.87 1556.08 2952.12 1514.46"></polygon><polygon fill="#fdcd00" points="2589.49 1556.08 2793.87 1978.28 3105.36 1978.28 2965.87 1556.08 2589.49 1556.08"></polygon><polygon fill="#d99409" points="2952.12 1514.46 3105.36 1978.28 3166.91 1978.28 3008.85 1511.86 2952.12 1514.46"></polygon><polygon fill="#e88d00" points="3023.84 1556.08 3166.91 1978.28 3177.6 1978.28 3040.23 1556.08 3023.84 1556.08"></polygon><polygon fill="#fdcd00" points="3440.95 1556.08 3040.23 1556.08 3177.6 1978.28 3586.81 1978.28 3440.95 1556.08"></polygon><polygon fill="#e88d00" points="3419.16 1493.01 3008.85 1511.85 3023.84 1556.08 3440.95 1556.08 3419.16 1493.01"></polygon><polygon fill="#d99409" points="3419.16 1493.01 3586.81 1978.28 3696.31 1978.28 3501.94 1489.21 3419.16 1493.01"></polygon><polygon fill="#d99409" points="4068.29 1463.2 3999.24 1466.37 3851.72 1978.28 4068.29 1978.28 4068.29 1463.2"></polygon><polygon fill="#e88d00" points="3999.24 1466.37 3501.94 1489.21 3528.52 1556.08 3973.39 1556.08 3999.24 1466.37"></polygon><polygon fill="#e88d00" points="3528.52 1556.08 3696.31 1978.28 3712.05 1978.28 3539.89 1556.08 3528.52 1556.08"></polygon><polygon fill="#fdcd00" points="3973.39 1556.08 3539.89 1556.08 3712.05 1978.28 3851.72 1978.28 3973.39 1556.08"></polygon><rect width="1514.09" height="91.28" x="2577.67" y="1440.38" fill="#be7c0b"></rect><rect width="1279.4" height="91.28" x="2793.87" y="1978.28" fill="#be7c0b"></rect><path fill="#9ca0a3" d="M4646.29,2109.73a149.27,149.27,0,1,1-56.61-117A149.29,149.29,0,0,1,4646.29,2109.73Z"></path><path fill="#d0d5d9" d="M4646.29,2109.73a111.55,111.55,0,1,1-56.61-117A149.29,149.29,0,0,1,4646.29,2109.73Z"></path><path fill="#1a1a1a" d="M3320.76,1942.92l-5.41,9.24,20.53,22.26,9.65-4.64,17.56,25.93-7.89,7.23,13.05,27.33,10.59-1.6,9.14,30-9.68,4.58,4.42,30,10.59,1.6-.1,31.32-10.59,1.53-4.61,29.93,9.65,4.64-9.33,29.9-10.57-1.66-13.23,27.24,7.85,7.28-17.72,25.83-9.62-4.71-20.67,22.14,5.36,9.27-24.55,19.45-7.8-7.33-26.28,15.06,2.39,10.44-29.19,11.35-5.3-9.3-29.54,6.64-.8,10.68-31.24,2.24-2.32-10.45-30.19-2.36-3.91,10-30.51-7.06.86-10.67L3073.2,2305l-6.68,8.37-27.07-15.75,4-9.94-23.62-19-8.84,6-21.23-23,6.72-8.33-17-25.07-10.23,3.16-13.5-28.26,8.88-6-8.83-29h-10.71l-4.57-31,10.25-3.09.09-30.28-10.23-3.16,4.77-31,10.7.06,9-28.91-8.85-6,13.68-28.17,10.21,3.22,17.13-25-6.67-8.37,21.37-22.9,8.81,6.09,23.74-18.81-3.92-10,27.18-15.58,6.62,8.41,28.22-11-.8-10.68,30.56-6.87,3.85,10,30.2-2.17,2.38-10.44,31.23,2.44.73,10.68,29.5,6.83,5.36-9.28,29.12,11.54-2.45,10.42,26.18,15.22,7.85-7.28Z"></path><path fill="#9ca0a3" d="M3316.21,2109.73a149.27,149.27,0,1,1-54.3-115.18A149.3,149.3,0,0,1,3316.21,2109.73Z"></path><path fill="#d0d5d9" d="M3316.21,2109.73a115,115,0,1,1-54.3-115.18A149.3,149.3,0,0,1,3316.21,2109.73Z"></path><rect width="50.19" height="94.98" x="4849.17" y="1906.24" fill="#dc271c" rx="15.59"></rect><rect width="140.99" height="140.99" x="4768.63" y="1987.74" fill="#21262a" rx="40.34"></rect><path fill="#a0d5fd" d="M4375.51,1531.66a16.42,16.42,0,0,0-16.42,16.42v89l105.4-105.4Z"></path><polygon fill="#fff" points="4464.49 1531.66 4359.09 1637.06 4359.09 1717.15 4544.59 1531.66 4464.49 1531.66"></polygon><path fill="#a0d5fd" d="M4375.51,1776.4h33.13L4634,1551.08l-4.74-10a16.41,16.41,0,0,0-14.84-9.4h-69.79l-185.5,185.49V1760A16.42,16.42,0,0,0,4375.51,1776.4Z"></path><polygon fill="#fff" points="4633.96 1551.08 4408.64 1776.4 4450.96 1776.4 4647.55 1579.81 4633.96 1551.08"></polygon><path fill="#a0d5fd" d="M4729.42,1753l-81.87-173.15L4451,1776.4h263.62A16.41,16.41,0,0,0,4729.42,1753Z"></path><path fill="#466a84" d="M4629.6,1541.86a16.45,16.45,0,0,0-4-.49H4386.74a16.42,16.42,0,0,0-16.42,16.42V1769.7a16.09,16.09,0,0,0,1.23,6.22,16.41,16.41,0,0,1-12.46-15.93V1548.08a16.42,16.42,0,0,1,16.42-16.42h238.87a16.41,16.41,0,0,1,14.84,9.4Z"></path><rect width="121.03" height="176.04" x="4078.66" y="1836.15" fill="#76797a" rx="39.02"></rect><rect width="105.95" height="116.82" x="4114.25" y="1315.09" fill="#76797a" rx="31.24"></rect><path fill="#a0d5fd" d="M3767.91,2093.56a42.51,42.51,0,0,0-42.51,42.51v29.34a42.5,42.5,0,0,0,42.51,42.5h20.5V2093.56Z"></path><rect width="20.78" height="114.35" x="3788.41" y="2093.56" fill="#fff"></rect><rect width="95.35" height="114.35" x="3809.19" y="2093.56" fill="#a0d5fd"></rect><rect width="28.12" height="114.35" x="3904.54" y="2093.56" fill="#fff"></rect><path fill="#a0d5fd" d="M3935.54,2093.56h-2.88v114.35h2.88a42.5,42.5,0,0,0,42.51-42.5v-29.34A42.51,42.51,0,0,0,3935.54,2093.56Z"></path><circle cx="4497" cy="2109.73" r="60.86" fill="#a3b4c2"></circle><circle cx="4497" cy="2109.73" r="27.14" fill="#1a1a1a"></circle><circle cx="3166.91" cy="2111.53" r="60.86" fill="#a3b4c2"></circle><circle cx="3166.91" cy="2109.73" r="27.14" fill="#1a1a1a"></circle><polygon fill="#fe4775" points="2880.6 2137.97 2847.06 2137.97 2865.74 2078.13 2899.28 2078.13 2880.6 2137.97"></polygon><rect width="132.27" height="16.87" x="2993.61" y="2224.91" fill="#dc271c" transform="rotate(-62 3073.136 2243.264)"></rect><rect width="132.27" height="7.47" x="2982.86" y="2223.92" fill="#9c271c" transform="rotate(-62.11 3049.31 2227.679)"></rect><polygon fill="#bfbfbf" points="3030.86 2275.16 3025.59 2272.37 2976.95 2364.29 2981.7 2366.81 3030.86 2275.16"></polygon><polygon fill="#fff" points="2991.46 2371.97 3040.1 2280.05 3030.86 2275.16 2981.7 2366.81 2991.46 2371.97"></polygon><rect width="44.57" height="36.62" x="3011.52" y="2265.09" fill="#dc271c" transform="rotate(-62.11 3034.124 2283.432)"></rect><rect width="44.57" height="8.43" x="2991.61" y="2268.65" fill="#a9271c" transform="rotate(-62.11 3014.215 2272.903)"></rect><polygon fill="#dc271c" points="2219.36 1425.53 1741.44 1611.04 1752.55 1636.47 2230.47 1450.96 2219.36 1425.53"></polygon><polygon fill="#9c271c" points="1752.55 1636.47 1757.47 1647.73 2235.39 1462.23 2230.47 1450.96 1752.55 1636.47"></polygon><polygon fill="#bfbfbf" points="2205.23 1457.58 2209.16 1466.57 2366 1398.07 2362.46 1389.96 2205.23 1457.58"></polygon><polygon fill="#fff" points="2355.19 1373.32 2198.35 1441.81 2205.23 1457.58 2362.46 1389.96 2355.19 1373.32"></polygon><rect width="73.35" height="60.27" x="2173.2" y="1413.81" fill="#dc271c" transform="rotate(-23.59 2210.05 1444.013)"></rect><rect width="73.35" height="13.88" x="2188.04" y="1470.98" fill="#a9271c" transform="rotate(-23.59 2224.892 1477.998)"></rect><polygon fill="#dc271c" points="2356.02 1708.72 2075.44 2039.01 2093.93 2053.45 2374.52 1723.15 2356.02 1708.72"></polygon><polygon fill="#9c271c" points="2093.93 2053.45 2102.13 2059.84 2382.71 1729.55 2374.52 1723.15 2093.93 2053.45"></polygon><polygon fill="#bfbfbf" points="2358.43 1738.23 2364.96 1743.33 2453.98 1629.28 2448.08 1624.67 2358.43 1738.23"></polygon><polygon fill="#fff" points="2435.98 1615.23 2346.96 1729.28 2358.43 1738.23 2448.08 1624.67 2435.98 1615.23"></polygon><rect width="62.01" height="50.95" x="2325.38" y="1700.75" fill="#dc271c" transform="rotate(-52.03 2356.36 1726.215)"></rect><rect width="62.01" height="11.73" x="2350.09" y="1739.64" fill="#a9271c" transform="rotate(-52.03 2381.069 1745.505)"></rect><polygon fill="#bf271c" points="2371.79 1570.02 2457.26 1647.73 2479.41 1632.97 2425.6 1511.15 2371.79 1570.02"></polygon><polygon fill="#4d4b4b" points="2488.15 2162.04 1263.89 2131.4 1263.89 2192.58 2490.85 2192.58 2488.15 2162.04"></polygon><path fill="#818080" d="M1263.89,2192.58v227.84H2371.21a119.64,119.64,0,0,0,119.64-119.63V2192.58Z"></path><polygon fill="#bf271c" points="2146.28 1799.84 2170.96 1811.32 2592.96 1335.07 2587.03 1328.72 2146.28 1799.84"></polygon><polygon fill="#dc271c" points="2540.25 1278.6 2083.03 1770.42 2146.28 1799.84 2587.03 1328.72 2540.25 1278.6"></polygon><polygon fill="#1f0e0a" points="1877.37 1778.42 2253.13 2029.31 2260.51 1976.32 1913.07 1762.52 1877.37 1778.42"></polygon><polygon fill="#4d0e0a" points="2067.94 1693.51 1913.07 1762.52 2260.51 1976.32 2282.63 1817.46 2067.94 1693.51"></polygon><path fill="#a51d15" d="M1216.56,1686.26V2093a69.09,69.09,0,0,0,69.09,69.09h1202.5v-14L1419.79,1501.52Z"></path><polygon fill="#4d4949" points="1264.32 1781.12 1503.31 1781.12 1503.31 1934.55 1185.52 1934.55 1264.32 1781.12"></polygon><polygon fill="#fdcd00" points="1168.73 1987.47 1503.31 1987.47 1503.31 1915.58 1209.93 1915.58 1168.73 1987.47"></polygon><polygon fill="#2f2b2b" points="1494.91 1781.12 1494.91 1999.52 1514.63 1999.52 1514.63 1937.63 1548.69 1817.46 1494.91 1781.12"></polygon><polygon fill="#2f2b2b" points="1568.43 1781.12 1568.43 1999.52 1588.15 1999.52 1588.15 1937.63 1622.21 1817.46 1568.43 1781.12"></polygon><polygon fill="#2f2b2b" points="1641.68 1781.12 1641.68 1999.52 1661.4 1999.52 1661.4 1937.63 1695.46 1817.46 1641.68 1781.12"></polygon><polygon fill="#aaafb2" points="1285.96 1298.39 1256.63 1647.11 1344.68 1701.32 1344.68 1336.4 1285.96 1298.39"></polygon><polygon fill="#d0d5d9" points="2007.36 1765.31 1344.68 1336.4 1344.68 1701.32 1816.81 1991.96 2007.36 1765.31"></polygon><polygon fill="#1a1a1a" points="3116.46 2273.16 3067.09 2371.11 3079.96 2377.38 3129.24 2279.59 3116.46 2273.16"></polygon><polygon fill="#dc271c" points="3037.44 2429.95 3050.22 2436.39 3079.96 2377.38 3067.09 2371.11 3037.44 2429.95"></polygon><circle cx="1533.71" cy="2386.19" r="267.81" fill="#1a1a1a"></circle><circle cx="1533.71" cy="2386.19" r="187.17" fill="#9ca0a2"></circle><circle cx="1533.71" cy="2386.19" r="161.4" fill="#d0d5d9"></circle><circle cx="1533.71" cy="2386.19" r="38.8" fill="#1a1a1a"></circle><path fill="#4d4d4d" d="M1679 2219.57l2.62.71 77.42 21.15 6.67-6.67-22.42-29.84s-63.34-20.54-74.75-9.13C1676.56 2215.19 1679 2219.57 1679 2219.57zM1613.28 2179.92l2.7-.23 80-6.61 4-8.55-31.26-20.37s-66.55 2.36-73.37 17C1609.46 2176.65 1613.28 2179.92 1613.28 2179.92zM1537.93 2165.14l2.47-1.13 72.89-33.57.82-9.4-36.34-8.44s-61.73 25-63.14 41.05C1533.23 2163.38 1537.93 2165.14 1537.93 2165.14zM1462.07 2177l1.93-1.91 57-56.47-2.44-9.12-37 4.5s-49.46 44.58-45.28 60.17C1457.05 2177 1462.07 2177 1462.07 2177zM1394.86 2214.15l1.15-2.46 34.27-72.57-5.41-7.72-33.27 16.89s-31.23 58.81-22 72C1390.12 2215.82 1394.86 2214.15 1394.86 2214.15zM1344.39 2272l.25-2.7 7.38-79.91-7.73-5.41-25.49 27.25s-9.23 66 4 75.21C1340.51 2275.21 1344.39 2272 1344.39 2272zM1316.75 2343.65l-.69-2.62-20.39-77.62-9.12-2.44-14.63 34.33s13.88 65.12 29.47 69.3C1314.2 2348 1316.75 2343.65 1316.75 2343.65zM1315.29 2420.42l-1.55-2.23-45.71-66-9.4.83-2 37.26s35.32 56.45 51.4 55C1314.37 2425.36 1315.29 2420.42 1315.29 2420.42zM1340.17 2493.06l-2.22-1.56-65.51-46.35-8.55 4 10.86 35.7s52.49 41 67.12 34.14C1341 2498 1340.17 2493.06 1340.17 2493.06zM1388.39 2552.82l-2.61-.72L1308.36 2531l-6.67 6.67 22.41 29.83s63.34 20.54 74.76 9.13C1390.87 2557.19 1388.39 2552.82 1388.39 2552.82zM1454.15 2592.47l-2.71.22-80 6.61-4 8.55 31.26 20.37s66.55-2.36 73.37-17C1458 2595.73 1454.15 2592.47 1454.15 2592.47zM1529.5 2607.24l-2.47 1.14-72.89 33.56-.83 9.4 36.35 8.45s61.73-25 63.13-41.06C1534.2 2609 1529.5 2607.24 1529.5 2607.24zM1605.35 2595.35l-1.92 1.91-57 56.48 2.44 9.11 37-4.5s49.46-44.58 45.29-60.17C1610.38 2595.4 1605.35 2595.35 1605.35 2595.35zM1672.57 2558.24l-1.16 2.45-34.26 72.57 5.41 7.73 33.27-16.89s31.23-58.81 22-72C1677.31 2556.56 1672.57 2558.24 1672.57 2558.24zM1723 2500.37l-.25 2.7-7.38 79.91 7.73 5.42 25.49-27.26s9.23-65.94-4-75.2C1726.92 2497.18 1723 2500.37 1723 2500.37zM1750.67 2428.73l.69 2.62 20.4 77.62 9.11 2.44 14.63-34.32s-13.88-65.13-29.47-69.31C1753.23 2424.4 1750.67 2428.73 1750.67 2428.73zM1752.14 2352l1.54 2.23 45.72 66 9.4-.82 2-37.26s-35.31-56.45-51.39-55.05C1753.06 2347 1752.14 2352 1752.14 2352zM1727.26 2279.32l2.21 1.57 65.52 46.34 8.55-4-10.86-35.7s-52.49-41-67.12-34.15C1726.43 2274.36 1727.26 2279.32 1727.26 2279.32z"></path><circle cx="2276.65" cy="2495.15" r="162.34" fill="#1a1a1a"></circle><circle cx="2276.65" cy="2495.15" r="113.45" fill="#9ca0a2"></circle><circle cx="2276.65" cy="2495.15" r="97.83" fill="#d0d5d9"></circle><circle cx="2276.65" cy="2495.15" r="23.52" fill="#1a1a1a"></circle><path fill="#4d4d4d" d="M2364.74 2394.15l1.59.43 46.92 12.82 4.05-4-13.59-18.09s-38.39-12.45-45.31-5.53C2363.24 2391.5 2364.74 2394.15 2364.74 2394.15zM2324.88 2370.12l1.64-.14 48.48-4 2.42-5.18-19-12.35s-40.34 1.43-44.47 10.3C2322.57 2368.14 2324.88 2370.12 2324.88 2370.12zM2279.21 2361.16l1.49-.69 44.19-20.34.5-5.7-22-5.12s-37.42 15.14-38.27 24.89C2276.36 2360.09 2279.21 2361.16 2279.21 2361.16zM2233.23 2368.37l1.17-1.16L2269 2333l-1.48-5.53-22.45 2.73s-30 27-27.45 36.47C2230.18 2368.34 2233.23 2368.37 2233.23 2368.37zM2192.48 2390.86l.71-1.48 20.77-44-3.28-4.69-20.17 10.24s-18.93 35.65-13.32 43.67C2189.61 2391.88 2192.48 2390.86 2192.48 2390.86zM2161.89 2425.94l.15-1.64 4.48-48.43-4.69-3.29-15.45 16.53s-5.59 40 2.42 45.58C2159.54 2427.88 2161.89 2425.94 2161.89 2425.94zM2145.14 2469.37l-.42-1.59-12.36-47.05-5.52-1.48-8.87 20.81s8.41 39.47 17.86 42C2143.59 2472 2145.14 2469.37 2145.14 2469.37zM2144.25 2515.9l-.93-1.35-27.71-40-5.7.5-1.22 22.58s21.41 34.22 31.16 33.37C2143.7 2518.9 2144.25 2515.9 2144.25 2515.9zM2159.34 2559.93L2158 2559l-39.71-28.09-5.18 2.42 6.58 21.64s31.82 24.83 40.69 20.69C2159.84 2562.94 2159.34 2559.93 2159.34 2559.93zM2188.57 2596.15l-1.59-.43-46.93-12.82-4 4L2149.6 2605s38.39 12.45 45.31 5.53C2190.07 2598.8 2188.57 2596.15 2188.57 2596.15zM2228.42 2620.19l-1.64.13-48.48 4-2.41 5.18 19 12.35s40.34-1.43 44.47-10.3C2230.74 2622.17 2228.42 2620.19 2228.42 2620.19zM2274.1 2629.14l-1.5.69-44.18 20.35-.5 5.69 22 5.12s37.42-15.14 38.27-24.88C2277 2630.21 2274.1 2629.14 2274.1 2629.14zM2320.08 2621.94l-1.17 1.15-34.56 34.24 1.48 5.52 22.45-2.72s30-27 27.45-36.48C2323.13 2622 2320.08 2621.94 2320.08 2621.94zM2360.82 2599.44l-.7 1.49-20.77 44 3.28 4.69 20.17-10.24s18.93-35.65 13.32-43.66C2363.7 2598.42 2360.82 2599.44 2360.82 2599.44zM2391.42 2564.36l-.16 1.64-4.47 48.44 4.69 3.28 15.45-16.52s5.59-40-2.42-45.59C2393.77 2562.43 2391.42 2564.36 2391.42 2564.36zM2408.17 2520.94l.41 1.59 12.37 47 5.52 1.49 8.87-20.81s-8.41-39.48-17.86-42C2409.71 2518.31 2408.17 2520.94 2408.17 2520.94zM2409.05 2474.4l.94 1.35 27.71 40 5.7-.5 1.21-22.59s-21.4-34.22-31.15-33.36C2409.61 2471.41 2409.05 2474.4 2409.05 2474.4zM2394 2430.37l1.34 1 39.72 28.09 5.18-2.41-6.58-21.64s-31.82-24.84-40.69-20.7C2393.47 2427.37 2394 2430.37 2394 2430.37z"></path><path fill="#ff7731" d="M1780.28,1796.24c-23,32.94-73.4,81.22-87.24,71.55s14.11-73.61,37.12-106.55,34.32-25.24,48.16-15.58S1803.29,1763.29,1780.28,1796.24Z"></path><path fill="#69a21a" d="M1771.68,1741s-1.61-33.39,6.87-32.2,8.32,17.3,8.32,17.3,13.39-21.71,18-9.27-4.52,18.69-4.52,18.69,10-10.54,15.72,2.21-26.41,15.84-26.41,15.84Z"></path><path fill="#ff7731" d="M1913.42,1876.37c-23,33-73.41,81.22-87.25,71.56s14.12-73.61,37.12-106.56,34.32-25.24,48.16-15.58S1936.42,1843.43,1913.42,1876.37Z"></path><path fill="#69a21a" d="M1904.81,1821.16s-1.6-33.4,6.88-32.21,8.31,17.3,8.31,17.3,13.39-21.71,18-9.27-4.51,18.69-4.51,18.69,10-10.54,15.71,2.21-26.4,15.84-26.4,15.84Z"></path><path fill="#ff7731" d="M2046.55,1956.5c-23,33-73.4,81.22-87.25,71.56s14.12-73.61,37.13-106.56,34.31-25.24,48.16-15.58S2069.56,1923.56,2046.55,1956.5Z"></path><path fill="#69a21a" d="M2038,1901.29s-1.61-33.4,6.87-32.21,8.32,17.3,8.32,17.3,13.38-21.71,18-9.26-4.51,18.68-4.51,18.68,10-10.54,15.72,2.21-26.41,15.84-26.41,15.84Z"></path><path fill="#ff7731" d="M2179.68,2036.63c-23,32.95-73.4,81.22-87.24,71.56s14.12-73.61,37.12-106.56,34.32-25.24,48.16-15.57S2202.69,2003.69,2179.68,2036.63Z"></path><path fill="#69a21a" d="M2171.08,1981.42s-1.61-33.4,6.88-32.21,8.31,17.3,8.31,17.3,13.39-21.7,18-9.26-4.52,18.69-4.52,18.69,10-10.55,15.72,2.2-26.41,15.84-26.41,15.84Z"></path><path fill="#ff7731" d="M2312.82,2116.77c-23,32.94-73.41,81.22-87.25,71.55s14.12-73.61,37.12-106.55,34.32-25.25,48.16-15.58S2335.82,2083.82,2312.82,2116.77Z"></path><path fill="#69a21a" d="M2304.21,2061.55s-1.6-33.4,6.88-32.21,8.31,17.3,8.31,17.3,13.39-21.7,18-9.26-4.51,18.69-4.51,18.69,10-10.55,15.71,2.2-26.4,15.85-26.4,15.85Z"></path><path fill="#ff7731" d="M2446,2196.9c-23,32.94-73.4,81.22-87.24,71.55s14.11-73.61,37.12-106.55,34.32-25.24,48.16-15.58S2469,2164,2446,2196.9Z"></path><path fill="#69a21a" d="M2437.35,2141.68s-1.61-33.4,6.87-32.2,8.32,17.3,8.32,17.3,13.38-21.71,18-9.27-4.52,18.69-4.52,18.69,10-10.54,15.72,2.21-26.41,15.84-26.41,15.84Z"></path><path fill="#ff7731" d="M2579.09,2277c-23,32.95-73.41,81.22-87.25,71.55S2506,2275,2529,2242s34.32-25.24,48.16-15.58S2602.09,2244.08,2579.09,2277Z"></path><path fill="#69a21a" d="M2570.48,2221.82s-1.6-33.4,6.88-32.21,8.31,17.3,8.31,17.3,13.39-21.71,18-9.27-4.51,18.69-4.51,18.69,10-10.54,15.71,2.21-26.41,15.84-26.41,15.84Z"></path><path fill="#ff7731" d="M2712.22,2357.16c-23,33-73.41,81.22-87.25,71.56s14.12-73.61,37.13-106.56,34.31-25.24,48.16-15.58S2735.23,2324.22,2712.22,2357.16Z"></path><path fill="#69a21a" d="M2703.62,2302s-1.61-33.4,6.87-32.21,8.31,17.3,8.31,17.3,13.39-21.71,18-9.26-4.51,18.68-4.51,18.68,10-10.54,15.72,2.21-26.41,15.84-26.41,15.84Z"></path><path fill="#ff7731" d="M2845.35,2437.29c-23,32.95-73.4,81.22-87.24,71.56s14.12-73.61,37.12-106.56,34.32-25.24,48.16-15.57S2868.36,2404.35,2845.35,2437.29Z"></path><path fill="#69a21a" d="M2836.75,2382.08s-1.61-33.4,6.88-32.21,8.31,17.3,8.31,17.3,13.39-21.71,18-9.26-4.52,18.68-4.52,18.68,10-10.54,15.72,2.21-26.41,15.84-26.41,15.84Z"></path><path fill="#ff7731" d="M2978.49,2517.43c-23,32.94-73.41,81.22-87.25,71.55s14.12-73.61,37.12-106.55,34.32-25.25,48.16-15.58S3001.49,2484.48,2978.49,2517.43Z"></path><path fill="#69a21a" d="M2969.88,2462.21s-1.6-33.4,6.88-32.21,8.31,17.3,8.31,17.3,13.39-21.7,18-9.26-4.51,18.69-4.51,18.69,10-10.55,15.71,2.2-26.4,15.85-26.4,15.85Z"></path><polygon fill="#1a1a1a" points="1517.13 1607.05 1502.55 1638.3 3032.67 2583.1 3081.24 2573.48 1517.13 1607.05"></polygon><polygon fill="#1a1a1a" points="1586.02 1498.72 1571.45 1529.98 3268.85 2578.07 3332.86 2572.3 1586.02 1498.72"></polygon><polygon fill="#1a1a1a" points="1502.55 1487.54 1502.55 1638.3 1541.4 1629.33 1532.08 1501.52 1502.55 1487.54"></polygon><polygon fill="#2f2b2b" points="1319.17 1279.21 1319.17 1729.2 1156.75 2083.56 1156.75 1210.67 1319.17 1279.21"></polygon><rect width="85.21" height="1110.31" x="1071.54" y="1156.73" fill="#818080"></rect><rect width="79.88" height="15.98" x="1034.27" y="1240.6" fill="#2f2b2b"></rect><rect width="79.88" height="21.97" x="1034.27" y="1584.08" fill="#2f2b2b"></rect><rect width="79.88" height="23.96" x="1038.26" y="1926.9" fill="#2f2b2b"></rect><polygon fill="#fdcd00" points="912.45 2227.11 912.45 2289.86 978.01 2227.11 912.45 2227.11"></polygon><polygon fill="#dc271c" points="978.01 2227.11 912.45 2289.86 912.45 2360.22 1034.64 2227.11 978.01 2227.11"></polygon><polygon fill="#fdcd00" points="1034.93 2227.11 1034.64 2227.11 912.45 2360.22 912.45 2384.87 962.11 2384.87 1034.93 2303.12 1034.93 2227.11"></polygon><polygon fill="#dc271c" points="1034.93 2303.12 962.11 2384.87 1034.93 2384.87 1034.93 2303.12"></polygon><rect width="164.08" height="157.76" x="1034.93" y="2227.11" fill="#d4d4d4"></rect><path fill="#dc271c" d="M1415.4,1426.51l114.68-159.3a28.53,28.53,0,0,1,37.42-8h0a28.55,28.55,0,0,1,13.19,32.5l-21.9,77.22a28.55,28.55,0,0,0,1.82,20.33l47.59,97.31a28.53,28.53,0,0,1-2.48,29.22l-15.85,22a28.53,28.53,0,0,1-38,7.7l-128.16-77.87A28.53,28.53,0,0,1,1415.4,1426.51Z"></path><rect width="27.89" height="200.46" x="3144.58" y="2105.36" fill="#dc271c" transform="rotate(26.75 3158.219 2205.26)"></rect><path fill="#69a21a" d="M4568.83,2572.3H1132.93c7.65,80.56,39.13,151.55,88,212.62H4390C4465.1,2714.8,4523.88,2640.34,4568.83,2572.3Z"></path><path fill="#69a21a" d="M2553.24 2588.4s-39.87-22.22-24.61-26.42 36.42 1.07 36.42 1.07-1.28-31.77 12.8-23.64 14.49 20.84 14.49 20.84 9.71-19.68 15.33-8.86l5.62 10.82 36.42-.23s-3.47-32.53 13.78-22.57 18.7 19.85 18.7 19.85l21.3-12.74v16.53s22.6-16.59 22.6-4.77 1.59 14 1.59 14zM2850.88 2588.4s-18.57-25.35 6.16-25.35 36.61 10.67 41.35 5.93 37.12-20.92 41.26-11.69S2971 2571.2 2974.8 2569s32.67-22.21 43.92-10.95 43.36 11.72 48.37 6.71 19.19-27.75 24.36-13c8.83-5.11 26.94-6.65 26.94 8.12 10-16.25 28.79-12.11 28.79 3.17 0-22.74 28.12-26.82 28.12-6.5 9.15-5.29 19.5 6.15 19.5 9.35s24 1 24 8-10 9.2-10 9.2zM3322 2583.1s30.28-53.61 51.68-32.21c18.21-26.08 45.78-35.19 50.7-5 30.51-25.47 75.47-25.57 75.47 9.18 37.87-21.87 77 33.37 77 33.37z"></path><path fill="#69a21a" d="M3543.47 2573.66s98.61-58.47 167-12.87c63.92-33.84 78.28-26 101.17-3.12 53.56-44.3 85.15-1.88 96-1.88 46-50.77 60.18-.22 60.18-.22s88.13-65.28 111.3-29.39c66.78-31.39 110.14 10.47 110.14 31.49s133.42-88.46 166.4-14.15c60.36-49.85 145-2.6 145 10s100.6-33 100.6-33l-32.4 51.75L3835 2657zM1148.3 2592.47l-15.37-20.17s2.22-58.31 31.61-41.34 29.4 29.2 29.4 29.2 18.59-42 35.57-25 17 25 17 25 14.16-18.57 25.43-7.3 29.77 11.28 29.77 11.28 16.38-40.95 37.08-29 18.46 25 18.46 25a34.2 34.2 0 0120.67-4.66c12.32 1 21 11.39 21 11.39l43.49-25.11c9.42-5.44-3.17 25.11-3.17 25.11l14.13 5.41zM1577.24 2573.36s84.76-31.3 125.8-15.65 94 2.45 94 2.45 103.6-24.63 106.56-10.06 42.82 10.06 42.82 10.06-6.71-65.48 20-38.74 17.62 41.63 17.62 41.63 13.85-46.86 20.12-25.88 0 40.9 0 40.9l-401.88 5z"></path><path fill="#4f7a14" d="M1197.18,2752.39s104.22-7.81,149.37,18.26c57.93-9.59,90.82-21.85,132-15s94-4.38,94-4.38l49.69,11.95s267.35-3.18,277.94,7.41,107.21,14.27,107.21,14.27H1220.89Z"></path><path fill="#92c64b" d="M4094.26,2979.83c-126.3,54.92-276.58,90-454.42,90q-12,4.74-23.87,9.29c-393.18,150.47-688.59,140.45-915.06,87.06-134.73-31.77-245.06-78.9-337.06-116.7a324,324,0,0,0-192.18-16.5c-211.38,46-464,26.64-667.32-53.15Z"></path><path fill="#bbd745" d="M4390,2784.92H1220.89c67.21,84.07,167.31,149.34,283.45,194.91H4094.26C4213.05,2928.17,4310.63,2859,4390,2784.92Z"></path><path fill="#69a21a" d="M4773.69,2674.72c53-26.51,103.38-59.1,145.88-100.6a43.27,43.27,0,0,1-7.56-7.5c-130.86,119.78-305.82,172.92-479.62,201.34l2.8,10.94C4552.14,2759.43,4667.23,2726.85,4773.69,2674.72Z"></path><path fill="#69a21a" d="M4435.19 2778.9c-12.31 2-62.88 8.32-77.49 10.35-.71-3.61-1.4-7.24-2.09-10.86 26.11-3.39 62.31-8.06 76.79-10.43zM4686.79 2740c-60.63-29.35-99 46.85-39.35 78.1C4708.06 2847.47 4746.44 2771.28 4686.79 2740zM4569.42 2781.43c-52.86-41.74-92.16 6.32-40.29 49.26C4582 2872.43 4621.29 2824.37 4569.42 2781.43z"></path><path fill="#69a21a" d="M4483.36 2796.5c-52.86-41.74-92.17 6.32-40.3 49.25C4495.92 2887.49 4535.22 2839.44 4483.36 2796.5zM4852.81 2737.44c-6.46-22-28.38-37.23-49.65-44-27.12-9.61-57.41 3.88-41.76 35.52 8.91 17.77 29.26 31.73 48.81 36.37C4830.58 2771.18 4860.6 2763.77 4852.81 2737.44zM4951.91 2672.55c5-31.54-25.05-56.31-54.66-57.83-42.47-3.34-48.43 35.78-22.67 61.72C4893.06 2694.93 4942.87 2705.31 4951.91 2672.55zM4919.57 2574.12c23.76 19.37 60.74 2.11 67.57-26.13 9.28-31.12-20.16-57.57-50.34-52.27C4897.32 2500.33 4890.47 2551.85 4919.57 2574.12zM4839.28 2604c49.11-5.91 37.06-106.76-12.06-100.93S4790.16 2609.83 4839.28 2604zM4702.44 2610.7c-4.29 16.16-1.42 36.62 8.15 50.4 11.3 18.21 34.83 21.86 46.33 1.86 13.54-23.12 10-57.64-10.76-75.44C4727.54 2572.15 4706.35 2591 4702.44 2610.7zM4598.13 2682.22c-1.74 29.18 21.89 52.13 46.54 28.7 20.89-19.2 34.55-70.6 5.37-87.24-13.81-6.35-31 5.68-39.24 18.68C4603.3 2653.14 4598.24 2669.08 4598.13 2682.22zM4519.46 2751.27c18.45-9.43 30.27-31 33.9-51.08 5.85-26.6-10.51-55.42-39.53-37.71-16.56 10.14-28.16 31.61-30.41 50.92C4479.4 2736.86 4494.4 2764 4519.46 2751.27zM4439.68 2761.33c18.45-9.44 30.27-31 33.9-51.08 5.84-26.6-10.52-55.43-39.54-37.72-16.55 10.15-28.15 31.62-30.4 50.92C4399.62 2746.92 4414.61 2774 4439.68 2761.33z"></path><path fill="#69a21a" d="M4823.25,2911.42c60.09,2.73,120.95-1.19,179.2-16.92a43.93,43.93,0,0,1-3-10.4c-179.55,42.35-365.49-.12-537-63.5a61.61,61.61,0,0,1,.09,12.22C4578.62,2875.25,4699.85,2904.72,4823.25,2911.42Z"></path><path fill="#69a21a" d="M4345.75 2782.11q3.19-4.43 6.43-8.83c38.55 16.68 99.38 43.3 110.28 47.33a61.5 61.5 0 01.08 12.21C4454.33 2829.82 4371.35 2793.09 4345.75 2782.11zM4713.84 2926.26c-39.22-56.06-111-7.51-73.59 49.76C4679.46 3032.08 4751.25 2983.53 4713.84 2926.26zM4589.26 2904.82c-26.19-63.2-84.86-40.06-60.14 23.71C4555.31 2991.73 4614 2968.59 4589.26 2904.82z"></path><path fill="#64ac00" d="M4862.33 3006.23c5.15-22.67-6.72-47.07-22.24-63.6-19.28-22-52.82-25-54.62 10.8-.91 20.17 10.22 42.64 25.25 56.44C4825.91 3025.13 4856.19 3033.44 4862.33 3006.23zM4982.35 2997.8c20.09-25.48 5.7-62.34-19.81-78.36-36-24-60.67 7.73-50.69 43.49C4919.08 2988.48 4958.1 3022.37 4982.35 2997.8zM5002.45 2894.5c11.47 28.94 52.82 32 72.86 10.31 23.65-23 10.65-61-18.74-71.3C5019.28 2818 4987.68 2860.33 5002.45 2894.5zM4916.45 2881.21c46.48 19.09 85.76-76.3 39.32-95.47S4870 2862 4916.45 2881.21zM4791.8 2819.35c-11.82 12.2-19.41 31.76-17.75 48.72 1 21.75 20.05 36.64 40.16 24.61 23.46-13.79 37.4-46.17 27.83-72.23C4833.16 2797.6 4805 2803.83 4791.8 2819.35z"></path><path fill="#69a21a" d="M4663.87 2831.07c-16 25-6.43 57.08 27.05 48.52 28-6.68 65.62-45.49 48-74.7-9.1-12.48-30.26-10.3-44-2.88C4682.86 2807.86 4670.47 2819.48 4663.87 2831.07zM4559.9 2853.33c21 .77 42.22-12.52 55.37-28.5 18.36-20.69 18.14-54.35-16.37-53-19.71.79-40.63 14.08-52.2 30.09C4531.52 2820.7 4531.39 2852.15 4559.9 2853.33zM4112.6 2974.34q-6.14 3.84-12.31 7.67c-134.63-43.73-275.33-66.3-415-41.27a47.05 47.05 0 00-2.55-11.14c62.39-13.27 126.87-13.91 190.16-7.58C3954.41 2930.91 4034.53 2949.21 4112.6 2974.34zM3989.22 2912.62c38.19 61.44 116.76 14.3 80.55-48.3C4031.59 2802.89 3953 2850 3989.22 2912.62zM4184.37 2920.82c.7 2.14 1.32 4.24 1.85 6.28q-28 18.48-56.35 36.39a91.4 91.4 0 01-10.35-21.08C4097.09 2873.67 4160.35 2852.6 4184.37 2920.82zM3837.05 2819.67c-6.74 23.64 4.39 50.09 19.82 68.43 19.1 24.28 54.34 29.43 58.29-8.27 2.11-21.24-8.34-45.6-23.42-61C3876.59 2801.81 3845.09 2791.3 3837.05 2819.67z"></path><path fill="#69a21a" d="M3709.85 2821.7c-22.66 25.73-9.59 65.48 16.42 83.85 36.64 27.42 64.5-4.67 56-43C3776.11 2835.16 3736.86 2797.14 3709.85 2821.7zM3682.71 2929.6c-10.45-31.21-53.93-36.78-76.34-15.07-26.28 22.92-14.74 63.83 15.7 76.35C3660.55 3009.35 3696.34 2966.52 3682.71 2929.6zM3772.74 2948.56c-48-22.82-94.93 75.64-47 98.54S3820.67 2971.47 3772.74 2948.56zM3900.78 3021c13.18-12.21 22.31-32.43 21.54-50.43.19-23-19.07-39.83-41-28.28-25.56 13.21-42.13 46.59-33.53 74.66C3855.87 3041.61 3885.94 3036.65 3900.78 3021zM4036.52 3016c18.33-25.5 10.06-59.89-25.77-52.77-30 5.44-71.89 44.25-54.95 76.1 8.89 13.7 31.36 12.62 46.34 5.57C4015.13 3039.4 4028.88 3027.84 4036.52 3016z"></path><path fill="#4f7a14" d="M4207.68 2898.87l-249.4-796.69a5.7 5.7 0 10-10.88 3.4l249.41 796.69a5.69 5.69 0 0010.87-3.4zM4128.6 2698.19s-113.77 93.49-215.34-36.44C3975.28 2573.72 4128.6 2698.19 4128.6 2698.19z"></path><path fill="#4f7a14" d="M4109.84 2609.17s-129.29 70.49-204.67-76.19C3982.6 2458.14 4109.84 2609.17 4109.84 2609.17zM4053.73 2462.87s-128 37-151.34-92.74C3987.93 2321.7 4053.73 2462.87 4053.73 2462.87zM4014.07 2326.92s-128 37-151.34-92.74C3948.27 2185.75 4014.07 2326.92 4014.07 2326.92z"></path><path fill="#4f7a14" d="M3978 2203.05s-128 37-151.34-92.73C3912.16 2061.89 3978 2203.05 3978 2203.05zM4145.36 2696.39s146.26 17.07 161.38-147.15C4207 2508.76 4145.36 2696.39 4145.36 2696.39z"></path><path fill="#4f7a14" d="M4115.67 2599.83s146.86-10.67 130.9-174.81C4141 2404 4115.67 2599.83 4115.67 2599.83zM4064.83 2459.07s127.63-38.13 77.1-159.87C4043.79 2304.76 4064.83 2459.07 4064.83 2459.07zM4018 2321.17s127.62-38.13 77.1-159.87C3997 2166.86 4018 2321.17 4018 2321.17z"></path><path fill="#4f7a14" d="M3984.27,2196.51s127.62-38.13,77.1-159.87C3963.23,2042.2,3984.27,2196.51,3984.27,2196.51Z"></path><path fill="#4f7a14" d="M3952.57,2123.37s-84.66-59.18-74.13-131.26L3889,1920S4042.58,2041.71,3952.57,2123.37Z"></path><path fill="#588a16" d="M4097.9,2990.43s-81.08-88.67-55.09-183.94c91.18,7.1,146.4,128.9,146.4,128.9S4142.34,2990.43,4097.9,2990.43Z"></path><path fill="#d3ee4f" d="M4147.88,2973.41l-1.1-1.46-1.42-2c-2.12-3.1-5-7.67-8.46-13.41-6.88-11.48-15.95-27.59-26.47-45.1s-20.59-33.09-28.06-44.28-12.33-18-12.33-18,3.11,7.77,8.85,20,14.11,28.82,24.69,46.44a371.66,371.66,0,0,0,30.06,43.28,149.92,149.92,0,0,0,10.76,11.92l1.83,1.73c.54.49,1,.88,1.4,1.21l1.16,1Z"></path><path fill="#ceed35" d="M4211.63,2958.89c-107.45-27.23-200.37-77.75-279.37-138.28-118.49-90.79-205.59-204.14-263-294.78a1284.81,1284.81,0,0,1-64.1-113.23c-7-14.15-12.31-25.45-15.79-33.2-1.75-3.88-3-6.87-3.91-8.89-.43-1-.76-1.77-1-2.28-.1-.26-.18-.45-.24-.58l-.07-.18a4.57,4.57,0,0,0-8.46,3.46h0c.11.24,49.73,121.68,153.66,257,52,67.66,117.53,138.79,197.32,199.93s173.83,112.3,282.68,139.88a4.57,4.57,0,0,0,2.25-8.85Z"></path><path fill="#ceed35" d="M3602.85 2418.19s-69.44-15.23-46.94-148.6C3607.33 2299.28 3651.72 2369.32 3602.85 2418.19zM3657.72 2499.74S3605.07 2452 3691 2347.49C3720.78 2398.83 3724.42 2481.68 3657.72 2499.74z"></path><path fill="#ceed35" d="M3653.53,2508.74s-45.77,54.39-153.38-27.55C3550.35,2449.48,3633,2442.76,3653.53,2508.74Z"></path><path fill="#ceed35" d="M3699.13 2581.92s-32.52 63.21-155.66 7.27C3585.35 2547.1 3664.43 2522.16 3699.13 2581.92zM3701.85 2579.37s-39.95-58.81 68.09-140.17C3786.86 2496.11 3770.92 2577.49 3701.85 2579.37z"></path><path fill="#ceed35" d="M3748.64 2643.75s-39.94-58.81 68.1-140.17C3833.66 2560.49 3817.72 2641.87 3748.64 2643.75zM3807.07 2713.83s-39.94-58.8 68.1-140.17C3892.09 2630.58 3876.15 2712 3807.07 2713.83z"></path><path fill="#ceed35" d="M3881.34 2777.54s-51.45-49.05 37-151.38C3946.88 2678.22 3948.47 2761.13 3881.34 2777.54zM3951.86 2835.46s-51.45-49.06 37-151.39C4017.39 2736.13 4019 2819 3951.86 2835.46zM3744.21 2648.68s-17.18 69-149.86 42.75C3625.47 2640.86 3696.74 2598.46 3744.21 2648.68zM3806.78 2720.5s-17.18 69-149.86 42.74C3688 2712.68 3759.31 2670.28 3806.78 2720.5zM3871.51 2780.69s.48 71.08-134.56 78.59C3754.55 2802.58 3813.06 2743.82 3871.51 2780.69zM3946.17 2842.74s.48 71.08-134.57 78.6C3829.2 2864.63 3887.72 2805.87 3946.17 2842.74z"></path><path fill="#588a16" d="M4350.48,2784.92s64-232.44,237.45-176.51c-59.8,84-164.89,144.34-164.89,144.34Z"></path><path fill="#d3ee4f" d="M4542.47,2620.53c-2.52.18-5.57.62-9.16,1l-5.66,1.09c-1,.21-2,.39-3.1.64l-3.22.86a138.37,138.37,0,0,0-29.79,11.73,178.71,178.71,0,0,0-32.33,22.22,221.94,221.94,0,0,0-27.1,28.11,252.22,252.22,0,0,0-18.37,25.87c-4.74,7.68-8.18,14.11-10.41,18.62s-3.29,7.08-3.29,7.08,6.39-9.11,17.75-22.79a425.18,425.18,0,0,1,47.92-49.34,267.66,267.66,0,0,1,30-22.49,178.56,178.56,0,0,1,27.18-14.29l3-1.27c1-.38,1.93-.7,2.87-1l5.29-1.92c3.36-1,6.26-2,8.67-2.59l7.55-1.85S4547.52,2620.28,4542.47,2620.53Z"></path><path fill="#85b51d" d="M4423,2752.75s-52.2,62.94-108.31,108q-3.36,2.7-6.74,5.31c-24.91,19.21-50.2,34.29-71.71,38.26,0,0-51.44-478.54,232.05-525.71C4367.89,2479,4423,2752.75,4423,2752.75Z"></path><path fill="#ceed35" d="M4350.48,2517.42c-32,110-32,330.76-32,330.76l-3.74,12.53q-3.36,2.7-6.74,5.31C4307.23,2802.1,4307.54,2570.13,4350.48,2517.42Z"></path><path fill="#85b51d" d="M4115.67,2970.23S4030.24,3176,4207.94,3300c-14.25-223,62.56-408.95,62.56-408.95S4129.14,2881.09,4115.67,2970.23Z"></path><path fill="#ceed35" d="M4189.26,2906.26s-76,164.14-15.5,291.86c-14.77-75.31-3-275.64,32.84-302.7C4192.22,2895.42,4189.26,2906.26,4189.26,2906.26Z"></path><path fill="#588a16" d="M4380,2800.23s128.66-20,170.25,51.39c23.87-80.72-85.16-125.23-129.08-108.88C4376.29,2760.07,4376.88,2776.89,4380,2800.23Z"></path><path fill="#d3ee4f" d="M4543.27,2823a18.52,18.52,0,0,0-.53-1.88c-.24-.73-.49-1.6-.88-2.53a47,47,0,0,0-9.18-14.55,79.31,79.31,0,0,0-20.24-15.74,136.16,136.16,0,0,0-28.75-11.85,198,198,0,0,0-30.17-6.15,243.44,243.44,0,0,0-25-1.83,190.12,190.12,0,0,0-23,.71s8.67,1.49,22.45,4.25,32.68,6.74,52.87,12.59a229.74,229.74,0,0,1,27.76,9.79,96.34,96.34,0,0,1,20.61,11.86,52.81,52.81,0,0,1,11.22,11.65c.58.79,1,1.54,1.41,2.18a17.55,17.55,0,0,1,1,1.65c.5.92.77,1.4.77,1.4Z"></path><path fill="#231f20" d="M4682.54,1668.88c0,26-10.9,47.14-24.36,47.14s-17.2-21.1-17.2-47.14,3.75-47.14,17.2-47.14S4682.54,1642.85,4682.54,1668.88Z"></path><path fill="#ff7731" d="M1664.35 2991.4s-1.48-11.29 28.92-22.77 74.94-.85 74.94 20.31S1664.35 2991.4 1664.35 2991.4zM2025.68 2991.4s-1.49-11.29 28.91-22.77 74.94-.85 74.94 20.31S2025.68 2991.4 2025.68 2991.4zM2387 2991.4s-1.49-11.29 28.91-22.77 74.94-.85 74.94 20.31S2387 2991.4 2387 2991.4zM2721.25 2991.4s-1.49-11.29 28.91-22.77 74.94-.85 74.94 20.31S2721.25 2991.4 2721.25 2991.4zM3205.47 2991.4s-1.49-11.29 28.91-22.77 74.94-.85 74.94 20.31S3205.47 2991.4 3205.47 2991.4zM1664.35 2798.11s-1.48-11.29 28.92-22.77 74.94-.86 74.94 20.31S1664.35 2798.11 1664.35 2798.11zM2025.68 2798.11s-1.49-11.29 28.91-22.77 74.94-.86 74.94 20.31S2025.68 2798.11 2025.68 2798.11zM2387 2798.11s-1.49-11.29 28.91-22.77 74.94-.86 74.94 20.31S2387 2798.11 2387 2798.11zM2721.25 2798.11s-1.49-11.29 28.91-22.77 74.94-.86 74.94 20.31S2721.25 2798.11 2721.25 2798.11zM3205.47 2798.11s-1.49-11.29 28.91-22.77 74.94-.86 74.94 20.31S3205.47 2798.11 3205.47 2798.11z"></path><path fill="#69a21a" d="M3234.92,2979.83s-46.42-57.74-23.21-71.14,43.85,23.86,43.85,23.86-26.44-66.42,3.87-66.42,62.54,10.32,51.58,37.4-11.61,30.31-11.61,30.31,23.86-34.82,37.4-14.19-37.4,57.39-37.4,57.39Z"></path><path fill="#ceed35" d="M3220.16,2788.19s-46.43-57.74-23.21-71.14,43.84,23.86,43.84,23.86-26.43-66.41,3.87-66.41,62.55,10.31,51.59,37.39-11.61,30.31-11.61,30.31,23.86-34.82,37.4-14.19-37.4,57.39-37.4,57.39Z"></path><path fill="#ff7731" d="M1664.35 2590.52s-1.48-11.29 28.92-22.77 74.94-.86 74.94 20.31S1664.35 2590.52 1664.35 2590.52zM2025.68 2590.52s-1.49-11.29 28.91-22.77 74.94-.86 74.94 20.31S2025.68 2590.52 2025.68 2590.52zM2387 2590.52s-1.49-11.29 28.91-22.77 74.94-.86 74.94 20.31S2387 2590.52 2387 2590.52zM2721.25 2590.52s-1.49-11.29 28.91-22.77 74.94-.86 74.94 20.31S2721.25 2590.52 2721.25 2590.52zM3205.47 2590.52s-1.49-11.29 28.91-22.77 74.94-.86 74.94 20.31S3205.47 2590.52 3205.47 2590.52z"></path><path fill="#69a21a" d="M1682.07 2979.83s-53.15-66.11-26.57-81.45 50.2 27.31 50.2 27.31-30.27-76 4.43-76 71.61 11.81 59.06 42.82-13.29 34.7-13.29 34.7 27.32-39.87 42.82-16.24-42.82 65.7-42.82 65.7zM2035 2979.83s-53.16-66.11-26.58-81.45 50.2 27.31 50.2 27.31-30.26-76 4.43-76 71.62 11.81 59.07 42.82-13.29 34.7-13.29 34.7 27.31-39.87 42.82-16.24-42.82 65.7-42.82 65.7zM2387.87 2979.83s-53.16-66.11-26.58-81.45 50.2 27.31 50.2 27.31-30.27-76 4.43-76 71.61 11.81 59.06 42.82-13.29 34.7-13.29 34.7 27.32-39.87 42.82-16.24-42.82 65.7-42.82 65.7zM2740.76 2979.83s-53.15-66.11-26.57-81.45 50.2 27.31 50.2 27.31-30.27-76 4.43-76 71.61 11.81 59.06 42.82-13.29 34.7-13.29 34.7 27.32-39.87 42.82-16.24-42.82 65.7-42.82 65.7z"></path><path fill="#ceed35" d="M1684.49 2781.23s-50.14-62.36-25.07-76.83 47.36 25.77 47.36 25.77-28.56-71.73 4.17-71.73 67.56 11.14 55.72 40.39-12.54 32.73-12.54 32.73 25.77-37.61 40.39-15.32-40.39 62-40.39 62zM2035 2784.92s-53.16-66.1-26.58-81.45 50.2 27.32 50.2 27.32-30.26-76 4.43-76 71.62 11.81 59.07 42.82-13.29 34.69-13.29 34.69 27.31-39.86 42.82-16.24-42.82 65.71-42.82 65.71zM2387.87 2784.92s-53.16-66.1-26.58-81.45 50.2 27.32 50.2 27.32-30.27-76 4.43-76 71.61 11.81 59.06 42.82-13.29 34.69-13.29 34.69 27.32-39.86 42.82-16.24-42.82 65.71-42.82 65.71zM2740.76 2784.92s-53.15-66.1-26.57-81.45 50.2 27.32 50.2 27.32-30.27-76 4.43-76 71.61 11.81 59.06 42.82-13.29 34.69-13.29 34.69 27.32-39.86 42.82-16.24-42.82 65.71-42.82 65.71z"></path><path fill="#69a21a" d="M1687.63 2571.57s-46.22-57.49-23.11-70.83 43.66 23.75 43.66 23.75-26.33-66.13 3.85-66.13 62.27 10.28 51.36 37.24-11.56 30.18-11.56 30.18 23.76-34.67 37.24-14.13-37.24 57.14-37.24 57.14zM2046.8 2580.06s-47.88-59.55-23.94-73.37 45.22 24.6 45.22 24.6-27.26-68.5 4-68.5 64.51 10.64 53.21 38.57-12 31.26-12 31.26 24.6-35.91 38.57-14.63-38.57 59.19-38.57 59.19zM2406.75 2576.12s-46.27-57.55-23.13-70.91 43.7 23.78 43.7 23.78-26.35-66.2 3.86-66.2 62.34 10.29 51.41 37.28-11.57 30.21-11.57 30.21 23.78-34.71 37.28-14.14-37.28 57.2-37.28 57.2zM2762.91 2569s-49.82-46.35-31-57.24 35.6 19.38 35.6 19.38-21.47-53.93 3.14-53.93 50.79 8.38 41.89 30.37-9.43 24.6-9.43 24.6 19.37-28.27 30.37-11.51-30.37 46.59-30.37 46.59zM3222.86 2580.06s-46.42-57.74-23.21-71.14 43.85 23.85 43.85 23.85-26.44-66.41 3.87-66.41 62.54 10.32 51.58 37.4-11.6 30.3-11.6 30.3 23.85-34.82 37.39-14.18-37.39 57.39-37.39 57.39z"></path><path fill="#cdec35" d="M1712.15 2906.08c-1.58-14.76-4.62-31.54 2.2-43.84 3.19-4.18 2.61-6.31-3.35-4.2-24.89 17.23-10.57 65.81-2.65 87.17C1727.72 2986.71 1713.9 2920.43 1712.15 2906.08zM2064.38 2927.63c-1-14.7-.31-37.35.19-49.72.23-8.36 0-13.82-1.88-14.32-10 6.15-12.52 33.07-12.63 46.62.56 14.56 2.46 40.41 17.24 45.13C2069.22 2951.55 2063.83 2935.65 2064.38 2927.63zM2416.27 2908.45a108.5 108.5 0 01-4.8-26.92c.65-19-5.77-13.82-9.69-1.17-6.85 20.13 7.95 61.3 27.44 67.49C2431.16 2938.07 2419.3 2922 2416.27 2908.45zM2770 2897.51c-3.48-8.87.57-49.87-11.78-22.89-7.22 16-.69 39.08 14.32 48.43C2797.83 2938.6 2771.6 2906.94 2770 2897.51zM2726.18 2931.56c-7-38.88-20-32.63-13.49 2.91 2.2 9.28 8.44 25.77 19.12 24.34C2733.44 2951.54 2727.31 2941.76 2726.18 2931.56zM3277.66 2962.69c-14.76-15.93-19.36-46.77-20.36-66-.91-9.51-2.08-15.63-4-15.76-8.88 9.55-8.25 39.46-4.22 54.81 3.53 13.51 11.57 26.64 22 34.07 6.14 3.7 10.95 7.43 16.26 5C3288.11 2973 3283.24 2969.54 3277.66 2962.69zM3236.57 2951.71c-14.58-22.54-25-13.36-11.3 7.93C3240.65 2979.79 3252.82 2973.07 3236.57 2951.71z"></path><path fill="#d6fc8e" d="M3247.36 2721.74c1.23-11.23.42-24.43-2.76-35.13-10.22-2.81-10 18.17-10.49 25.11C3232.11 2728.06 3246.65 2755 3247.36 2721.74zM3220.07 2764.22c-.15-3.92-16.7-38-21.77-30.46C3187.34 2743.68 3224.05 2792.14 3220.07 2764.22zM2723.94 2729c-2.92-8.87.9-42.93-11.42-20.48-6.62 14-2.06 35.86 11.94 43.77 3.73 2 8.31 3.85 10.6 1.11C2734 2746.5 2725.15 2738.75 2723.94 2729zM2780.12 2728c-4.8-14.81-4.11-32.74-1.65-47.41 1.31-8.09 2.42-13.44.66-14.35-15.82 8-18.68 40.23-14.15 57.06 3.14 12.25 13.93 31.31 26.9 29.4C2792.09 2748.56 2781.27 2736 2780.12 2728z"></path><path fill="#cdec35" d="M2765.08 2530.45c2.63 8.71 13.54 19.71 11.42 1.69a170.87 170.87 0 010-30.68c-.15-5 5.26-23.42-3.42-17.92C2761.07 2494.8 2759.58 2515.58 2765.08 2530.45zM2768.34 2560.64c1.41-8.37-12.61-17.19-14.87-25.22-4.77-12.94-12.51-.09-9.75 8.26C2745.25 2553.12 2759.59 2566.22 2768.34 2560.64zM3234.46 2531c14.63 28.35 10.59-42.79 3.06-45-4.39-.29-7.25 10.7-7.6 15.89C3228.81 2510.69 3231.2 2524.31 3234.46 2531zM3200.63 2549.32c4.14 8.23 15.77 20.13 24.49 14.88 0-6.51-9.25-13.16-12.12-21-4.47-7-4.19-18.41-9.32-22.38C3194.2 2524.58 3196.61 2541 3200.63 2549.32zM2425.73 2556.38c-9.69-5.88-28.32-13.57-32.11-27-1-4.87-2.78-17.42-5.43-16.95-7.45 4.1-8.1 27.61.31 34.58C2398.56 2565.05 2457.56 2575 2425.73 2556.38zM2423.74 2538.2c18.2 36.22 5.73-57.52-2-57.69C2410.82 2491.28 2417.73 2524.92 2423.74 2538.2zM2033.08 2552.55c5 3.85 14.54 7.89 18.19 2.43-1.46-5.74-10.93-10.55-13.27-18-3.63-6.1-2.78-19.83-8.58-22.52C2018.3 2520.81 2022.3 2545.56 2033.08 2552.55zM2077.91 2534.72c-5.51-11.13-9.22-24.64-9.3-37.19-.83-6.49 2.52-20.56-.48-23.32-5.25-1-11.82 15.2-12.21 22.58C2048.76 2528 2092 2567.92 2077.91 2534.72zM1685.67 2538.17c-2.8-4.53-6.66-6.59-9.19-11-5.35-4.71-4.84-27.56-11.74-20.78-10 11.94-1.94 32.34 11.7 38.54 2.69 1.85 5.77 9.67 9.7 7.18A15.38 15.38 0 001685.67 2538.17zM1697.07 2514c2.26 9.94 6 39.94 19.74 35.75a108.66 108.66 0 01-3.87-22.63c-1.67-13-4.89-31.08-6.69-42.56-1.19-7-2.24-11.58-4.18-11.82C1693.29 2478.53 1695.37 2502.53 1697.07 2514z"></path><path fill="#d6fc8e" d="M1669.85 2746.49c-6.11-10-1.84-31.43-8.54-37.92-11.58 6.79-10.73 33.34-2.51 44.21 4 5.8 13.16 13.68 18.92 9.07C1678.18 2758.3 1671.27 2751.6 1669.85 2746.49zM1702.83 2742.85c15.79 24.75 8.84-5.28 6.62-15.84-1.29-13.08-4.6-29.93-3.76-42.71 0-4.65 2.36-9.07.67-12.19C1684.84 2677.74 1693.23 2728.26 1702.83 2742.85zM2051.6 2740.21c4.69-4.32-1.35-13.06-1.36-19.09-4.9-15.26-46-33-21.16-4.43C2036.65 2721.74 2043.75 2740.08 2051.6 2740.21z"></path><path fill="#d6fc8e" d="M2053.48 2735c18.69 48.83 13.07-1.95 9.81-19.7-2.48-10.94-2.19-32.61-9.12-38.92C2043.74 2687.78 2049.3 2719.72 2053.48 2735zM2390.5 2738.52c-3.24-8.19-2.32-18.95-7.26-23.57-9.19 2.8-8.42 17.57-6 27.33 3.18 9.47 9 21.67 17 21.71C2398.46 2758.28 2392.14 2746.72 2390.5 2738.52zM2417.81 2740.37c7.9 11.73 16.12 15.82 9-3.9-4-14.32-3.67-32.58-4.24-47.77-1.43-9.73.81-20.82-3.22-28C2404.83 2669 2407.17 2727.38 2417.81 2740.37z"></path><polygon fill="#dc271c" points="2545.52 1373.1 2690.56 1373.1 2819.39 1278.6 2540.32 1278.6 2545.52 1373.1"></polygon><rect width="24.07" height="123.85" x="1976.32" y="1776.03" fill="#dc271c" transform="rotate(30 1988.355 1837.942)"></rect><rect width="24.07" height="123.85" x="2128.81" y="1872.42" fill="#dc271c" transform="rotate(30 2140.845 1934.342)"></rect><rect width="24.07" height="123.85" x="2367.2" y="2013.6" fill="#dc271c" transform="rotate(30 2379.235 2075.526)"></rect><rect width="24.07" height="123.85" x="2519.69" y="2109.99" fill="#dc271c" transform="rotate(30 2531.72 2171.907)"></rect><rect width="24.07" height="123.85" x="2632.95" y="2188.13" fill="#dc271c" transform="rotate(30 2644.982 2250.06)"></rect><rect width="24.07" height="123.85" x="2785.45" y="2284.52" fill="#dc271c" transform="matrix(.87 .5 -.5 .87 1548.02 -1084.38)"></rect><rect width="24.07" height="123.85" x="2922.37" y="2364.34" fill="#dc271c" transform="rotate(30 2934.397 2426.27)"></rect><rect width="99.49" height="192.52" x="1850.4" y="2247.73" fill="#4d4d4d" rx="22.65"></rect><rect width="99.49" height="192.52" x="1966.41" y="2247.73" fill="#4d4d4d" rx="22.65"></rect><path fill="#fdcd00" d="M1216.56,2065.23h498.18a10.82,10.82,0,0,0,10.82-10.82h0a10.82,10.82,0,0,0-10.82-10.82H1216.56Z"></path><path d="M1727.76,1401.69a28.41,28.41,0,0,0-3.21-9.34c-3-5.61-7.66-10.91-13.4-16.16-10.06-9.17-23.59-18.14-38.33-26.63-22.11-12.71-46.91-24.22-66.23-32.6s-33.14-13.59-33.2-13.61a5.5,5.5,0,1,0-3.88,10.29l.09,0c2.1.79,38.31,14.6,74.45,32.9,18.07,9.14,36.12,19.42,49.73,29.59a101.34,101.34,0,0,1,16.48,14.82,38.17,38.17,0,0,1,4.65,6.66,17.14,17.14,0,0,1,1.95,5.58,12.31,12.31,0,0,1,.13,1.77,10.69,10.69,0,0,1-.62,3.66,14.25,14.25,0,0,1-4.32,5.91,28.81,28.81,0,0,1-6.36,4,57.87,57.87,0,0,1-14.28,4.44,103.6,103.6,0,0,1-18.8,1.61c-19.39,0-43-4.51-66.58-14.9a182.92,182.92,0,0,1-66.66-50c-12.21-14.6-24.82-24.55-37.4-30.81a81.91,81.91,0,0,0-36.91-8.81,94,94,0,0,0-32.85,6.23,136.84,136.84,0,0,0-36,20.68,127.64,127.64,0,0,0-13.94,12.51,5.5,5.5,0,0,0,8.09,7.46h0a132.13,132.13,0,0,1,22.16-18.18,118.67,118.67,0,0,1,23.79-12.24,83,83,0,0,1,28.79-5.45,70.76,70.76,0,0,1,32,7.66c11,5.5,22.46,14.38,33.87,28a194,194,0,0,0,70.65,53c25,11,50,15.83,71,15.84a113.19,113.19,0,0,0,21.13-1.86,73.45,73.45,0,0,0,13.31-3.78c6-2.41,11.12-5.58,14.89-9.77a23.88,23.88,0,0,0,4.45-7,21.78,21.78,0,0,0,1.6-8.23A24.78,24.78,0,0,0,1727.76,1401.69Z"></path><ellipse cx="2371.79" cy="1388.98" fill="#dc271c" rx="33.8" ry="36.55"></ellipse><polygon fill="#dc271c" points="2386.39 1471.04 2343 1408.12 2398.25 1366.26 2460.71 1388.97 2386.39 1471.04"></polygon><circle cx="2371.39" cy="1385.39" r="12.07" fill="#4d0e0a"></circle><rect width="149.87" height="36.36" x="3036.49" y="2161.95" fill="#dc271c" transform="rotate(26.75 3111.124 2179.777)"></rect><path fill="#dc271c" d="M2867.51,2287.86l168.82-125.22,16.36-32.47-233.2,126.62C2809.53,2272.19,2848.55,2303.25,2867.51,2287.86Z"></path><polygon fill="#bf271c" points="2549.1 1384.56 2679.86 1384.56 2690.56 1373.1 2545.52 1373.1 2549.1 1384.56"></polygon><path fill="#ff7731" d="M2845.08,1374.11c-25.42,22.83-76.49,53-86.08,42.35s25.94-58.2,51.36-81,33.3-14.26,42.88-3.58S2870.5,1351.29,2845.08,1374.11Z"></path><path fill="#69a21a" d="M2848.64,1326.74s5.14-28,11.93-25.34,3.54,15.94,3.54,15.94,15.28-15.38,16.7-4.19-7.36,14.6-7.36,14.6,10.33-6.79,12.59,4.87-24.93,8-24.93,8Z"></path><path fill="#d9eefe" d="M2491,984.53c0,9.38-242.19,70.88-255.65,173-143.62,14-209.72,121.07-209.72,121.07s9.8-135.33,129.83-190.47c0-111.9,93.66-194.9,153.07-236.3C2371.26,882.58,2432.76,926.26,2491,984.53Z"></path><ellipse cx="3776.17" cy="818.39" fill="#e1f1fd" rx="156.55" ry="118.39"></ellipse><path fill="#e1f1fd" d="M4043.06,1030.14a51.16,51.16,0,0,0,10-29.87c0-35.07-38-63.5-84.82-63.5s-84.82,28.43-84.82,63.5a48.53,48.53,0,0,0,2.79,16.18c-17.34,11.63-28.26,28.51-28.26,47.31,0,35.06,38,63.49,84.82,63.49a113.28,113.28,0,0,0,13.14-.76c15,17.75,41.51,29.55,71.68,29.55,46.84,0,84.82-28.42,84.82-63.49C4112.38,1061.45,4082.5,1035.59,4043.06,1030.14Z"></path><circle cx="3755.15" cy="1126.87" r="44.62" fill="#e1f1fd"></circle><ellipse cx="2271.23" cy="3146.41" fill="#92c64b" rx="144.76" ry="55.53"></ellipse><path fill="#cc1d15" d="M1833.05 2065.23h-5.91a8.48 8.48 0 00-8.46 8H1812a8.49 8.49 0 00-8.47-8h-5.91a8.49 8.49 0 00-8.49 8.49v36.17a8.49 8.49 0 008.49 8.49h5.91a8.49 8.49 0 008.49-8.49V2108h6.64v1.85a8.49 8.49 0 008.49 8.49h5.91a8.49 8.49 0 008.49-8.49v-36.17A8.49 8.49 0 001833.05 2065.23zM1891.76 2065.23h-5.9a8.54 8.54 0 00-4.23 1.13 6.86 6.86 0 00-3.77-1.13h-9.14a7 7 0 00-.93.07 8.93 8.93 0 00-1-.07h-5.9a8.49 8.49 0 00-8.49 8.49v36.17a8.49 8.49 0 008.49 8.49h5.9a8.49 8.49 0 008.49-8.49V2100h2.13v9.85a8.49 8.49 0 008.49 8.49h5.9a8.49 8.49 0 008.49-8.49v-36.17A8.49 8.49 0 001891.76 2065.23z"></path><rect width="22.89" height="53.15" x="1926.67" y="2065.23" fill="#cc1d15" rx="8.49"></rect><path fill="#4f7a14" d="M3616,3079.12c-393.18,150.47-688.59,140.45-915.06,87.06,31.52-30.9,85-58.32,172.26-42.63,172.51,31,159.16,59.8,266.6,13.29s201.89-65.06,264.7-28.79,111.76-106.31,189.88-46.51C3602.34,3067.66,3609.52,3073.53,3616,3079.12Z"></path><path fill="#d9eefe" d="M2059.8,1101.41s-83.89,90.53-83.89,197c-50.94,73.23-62.84,145.55-62.84,145.55s-13.33-81.33,36.82-165.35C1913.07,1170.07,2059.8,1101.41,2059.8,1101.41Z"></path><ellipse cx="4405.58" cy="1090.91" fill="#a0d5fd" rx="81.66" ry="162.96" transform="rotate(-45 4405.576 1090.9)"></ellipse><ellipse cx="2002.4" cy="3127.15" fill="#92c64b" rx="64.29" ry="36.27"></ellipse><path fill="#69a21a" d="M1029.05,2634.67s38.92,184.7,80.61,143-40.1-315.28-61.39-240.66S1012.24,2570.89,1029.05,2634.67Z"></path><path fill="#fff" d="M1840.15,1117.75l-12.22,18.78a138.45,138.45,0,0,0-150.76,0L1665,1117.75a160.83,160.83,0,0,1,175.2,0Z"></path><path fill="#fff" d="M1815.74 1155.32l-12.19 18.81a93.68 93.68 0 00-102 0c-4-6.17-8.08-12.46-12.18-18.8a116.07 116.07 0 01126.37 0zM1791.37 1192.93c-4.28 6.61-8.37 12.93-12.18 18.8a49 49 0 00-53.28 0c-3.8-5.89-7.89-12.2-12.18-18.82a71.32 71.32 0 0177.64 0zM1779.22 1252.94a26.7 26.7 0 11-12.2-22.39A26.67 26.67 0 011779.22 1252.94zM4392.72 1320.37c-2.64 4.08-5.35 8.24-8.08 12.43a91.63 91.63 0 00-99.77 0c-2.73-4.19-5.44-8.35-8.08-12.43a106.43 106.43 0 01115.93 0z"></path><path fill="#fff" d="M4376.57 1345.24l-8.07 12.44a62 62 0 00-67.49 0c-2.64-4.08-5.35-8.24-8.06-12.43a76.76 76.76 0 0183.62 0zM4360.44 1370.13l-8.06 12.44a32.39 32.39 0 00-35.25 0l-8.06-12.45a47.2 47.2 0 0151.37 0zM4352.4 1409.84a17.66 17.66 0 11-8.07-14.82A17.65 17.65 0 014352.4 1409.84z"></path><path fill="#231f20" d="M4661.76,1685.24l57.4,35.5s8.48-13.51,4.24-17.75-49.75-39.25-49.75-39.25Z"></path></svg>